<svg xmlns="http://www.w3.org/2000/svg" viewBox="0 0 56 56">
  <defs>
    <linearGradient id="bg" x1="0" y1="0" x2="0" y2="1">
      <stop offset="0%" stop-color="#FB7185"/>
      <stop offset="100%" stop-color="#F43F5E"/>
    </linearGradient>
    <filter id="shadow" x="-25%" y="-20%" width="150%" height="150%">
      <feDropShadow dx="0" dy="3" stdDeviation="4" flood-color="#F43F5E" flood-opacity="0.22"/>
    </filter>
  </defs>
  <rect x="3" y="3" width="50" height="50" rx="15" fill="url(#bg)" filter="url(#shadow)"/>
  <rect x="5" y="5" width="46" height="23" rx="12" fill="white" opacity="0.13"/>
  <!-- 内容区: 6px 内边距 -->
  <path d="M12 15C12 12.5 14 10 16.5 10H28V44C28 44 26 47 22 47H16.5C14 47 12 46 12 44V15Z" fill="white" opacity="0.55"/>
  <path d="M44 15C44 12.5 42 10 39.5 10H28V44C28 44 30 47 34 47H39.5C42 47 44 46 44 44V15Z" fill="white" opacity="0.75"/>
  <line x1="28" y1="10" x2="28" y2="47" stroke="white" stroke-width="1.8" opacity="0.5"/>
  <line x1="16" y1="20" x2="23" y2="20" stroke="white" stroke-width="2.5" stroke-linecap="round" opacity="0.45"/>
  <line x1="16" y1="27" x2="23" y2="27" stroke="white" stroke-width="2.5" stroke-linecap="round" opacity="0.45"/>
  <line x1="16" y1="34" x2="20" y2="34" stroke="white" stroke-width="2.5" stroke-linecap="round" opacity="0.45"/>
  <line x1="33" y1="20" x2="41" y2="20" stroke="white" stroke-width="2.5" stroke-linecap="round" opacity="0.45"/>
  <line x1="33" y1="27" x2="41" y2="27" stroke="white" stroke-width="2.5" stroke-linecap="round" opacity="0.45"/>
  <line x1="33" y1="34" x2="38" y2="34" stroke="white" stroke-width="2.5" stroke-linecap="round" opacity="0.45"/>
</svg>